<svg width="3124" height="2267" xmlns="http://www.w3.org/2000/svg" xmlns:xlink="http://www.w3.org/1999/xlink" xml:space="preserve" overflow="hidden"><defs><clipPath id="clip0"><rect x="0" y="0" width="3124" height="2267"/></clipPath><clipPath id="clip1"><rect x="0" y="0" width="3124" height="2266"/></clipPath><clipPath id="clip2"><rect x="0" y="0" width="3124" height="2266"/></clipPath><clipPath id="clip3"><rect x="242" y="50" width="2835" height="2016"/></clipPath><clipPath id="clip4"><rect x="0" y="0" width="3124" height="2266"/></clipPath><clipPath id="clip5"><rect x="0" y="0" width="3124" height="2266"/></clipPath><clipPath id="clip6"><rect x="242" y="50" width="2835" height="2016"/></clipPath><clipPath id="clip7"><rect x="0" y="0" width="3124" height="2266"/></clipPath><clipPath id="clip8"><rect x="0" y="0" width="3124" height="2266"/></clipPath><clipPath id="clip9"><rect x="0" y="0" width="3124" height="2266"/></clipPath><clipPath id="clip10"><rect x="0" y="0" width="3124" height="2266"/></clipPath><clipPath id="clip11"><rect x="0" y="0" width="3124" height="2266"/></clipPath><clipPath id="clip12"><rect x="0" y="0" width="3124" height="2266"/></clipPath><clipPath id="clip13"><rect x="0" y="0" width="3124" height="2266"/></clipPath><clipPath id="clip14"><rect x="0" y="0" width="3124" height="2266"/></clipPath><clipPath id="clip15"><rect x="0" y="0" width="3124" height="2266"/></clipPath><clipPath id="clip16"><rect x="0" y="0" width="3124" height="2266"/></clipPath><clipPath id="clip17"><rect x="0" y="0" width="3124" height="2266"/></clipPath><clipPath id="clip18"><rect x="0" y="0" width="3124" height="2266"/></clipPath><clipPath id="clip19"><rect x="0" y="0" width="3124" height="2266"/></clipPath><clipPath id="clip20"><rect x="0" y="0" width="3124" height="2266"/></clipPath><clipPath id="clip21"><rect x="0" y="0" width="3124" height="2266"/></clipPath><clipPath id="clip22"><rect x="0" y="0" width="3124" height="2266"/></clipPath><clipPath id="clip23"><rect x="0" y="0" width="3124" height="2266"/></clipPath><clipPath id="clip24"><rect x="0" y="0" width="3124" height="2266"/></clipPath><clipPath id="clip25"><rect x="0" y="0" width="3124" height="2266"/></clipPath><clipPath id="clip26"><rect x="0" y="0" width="3124" height="2266"/></clipPath></defs><g clip-path="url(#clip0)"><rect x="0" y="0" width="3124" height="2267" fill="#FFFFFF"/><g clip-path="url(#clip1)"><path d="M242.5 1727.56 3073.5 1727.56M242.5 1392.55 3073.5 1392.55M242.5 1056.53 3073.5 1056.53M242.5 721.524 3073.5 721.524M242.5 385.513 3073.5 385.513M242.5 50.5 3073.5 50.5" stroke="#D9D9D9" stroke-width="3.4375" stroke-linejoin="round" stroke-miterlimit="10" fill="none"/></g><g clip-path="url(#clip2)"><path d="M242.5 50.5 242.5 2063.5M519.517 50.5 519.517 2063.5M800.526 50.5 800.526 2063.5M1079.54 50.5 1079.54 2063.5M1360.54 50.5 1360.54 2063.5M1637.55 50.5 1637.55 2063.5M1918.56 50.5 1918.56 2063.5M2195.57 50.5 2195.57 2063.5M2477.58 50.5 2477.58 2063.5M2754.59 50.5 2754.59 2063.5M3035.5 50.5 3035.5 2063.5" stroke="#D9D9D9" stroke-width="3.4375" stroke-linejoin="round" stroke-miterlimit="10" fill="none"/></g><g clip-path="url(#clip3)"><path d="M243 2003.07 258.008 2001.07 266.009 1999.07 274.009 1997.07 281.009 1994.07 289.009 1992.07 297.01 1990.07 304.01 1965.06 312.01 1963.06 320.01 1960.06 327.011 1958.06 335.011 1956.06 343.011 1953.06 350.011 1929.06 358.012 1926.06 365.012 1924.06 373.012 1921.06 381.013 1919.06 388.013 1917.06 396.013 1914.06 398.013 1892.06 404.013 1890.06 411.013 1887.06 419.014 1885.06 427.014 1883.06 434.014 1880.06 442.014 1878.06 443.015 1856.06 450.015 1853.06 457.015 1851.06 465.015 1848.06 473.016 1846.06 480.016 1844.06 488.016 1841.06 491.016 1819.06 495.016 1817.06 503.017 1814.06 511.017 1812.06 518.017 1810.06 526.017 1807.06 534.018 1805.06 537.018 1783.06 541.018 1780.06 549.018 1778.06 557.018 1776.06 564.018 1773.06 572.019 1771.06 580.019 1768.06 583.019 1746.06 587.019 1744.06 595.02 1741.06 603.02 1739.06 610.02 1737.06 618.02 1734.06 625.021 1732.06 630.021 1710.06 633.021 1707.06 641.021 1705.06 648.021 1703.06 656.021 1700.06 664.022 1698.06 671.022 1695.06 676.022 1673.05 679.022 1671.05 687.023 1668.05 694.023 1666.05 702.023 1664.05 710.023 1661.05 717.024 1659.05 723.024 1637.05 725.024 1634.05 733.024 1632.05 740.024 1630.05 748.025 1627.05 756.025 1625.05 763.025 1622.05 769.025 1600.05 771.025 1598.05 778.026 1595.05 786.026 1593.05 794.026 1591.05 801.026 1588.05 809.026 1586.05 815.027 1564.05 817.027 1561.05 824.027 1558.05 832.027 1555.05 840.028 1553.05 847.028 1549.05 855.028 1546.05 863.028 1521.05 870.029 1518.05 878.029 1515.05 886.029 1512.05 893.029 1509.05 901.03 1506.05 908.03 1480.05 916.03 1477.05 924.03 1474.05 931.031 1471.05 939.031 1468.05 947.031 1465.05 954.031 1462.05 956.031 1440.05 962.032 1436.05 970.032 1433.05 977.032 1430.05 985.032 1427.05 993.033 1424.05 1000.03 1421.05 1002.03 1399.05 1008.03 1396.05 1016.03 1392.05 1023.03 1389.05 1031.03 1386.05 1039.03 1383.05 1046.03 1380.05 1049.03 1358.04 1054.03 1355.04 1061.03 1352.04 1069.04 1348.04 1077.04 1345.04 1084.04 1342.04 1092.04 1339.04 1095.04 1317.04 1100.04 1314.04 1107.04 1311.04 1115.04 1308.04 1123.04 1304.04 1130.04 1301.04 1138.04 1298.04 1141.04 1276.04 1146.04 1273.04 1153.04 1270.04 1161.04 1267.04 1169.04 1264.04 1176.04 1260.04 1184.04 1257.04 1188.04 1235.04 1191.04 1232.04 1199.04 1229.04 1207.04 1226.04 1214.04 1223.04 1222.04 1220.04 1230.04 1217.04 1234.04 1195.04 1237.04 1191.04 1245.04 1188.04 1253.04 1185.04 1260.04 1182.04 1268.04 1179.04 1276.04 1176.04 1282.04 1154.04 1283.04 1151.04 1291.04 1147.04 1299.04 1144.04 1306.04 1141.04 1314.04 1138.04 1322.04 1135.04 1328.04 1113.04 1329.04 1110.04 1337.04 1107.04 1344.04 1103.04 1352.04 1100.04 1360.04 1097.04 1367.04 1094.04 1375.05 1091.04 1383.05 1087.04 1390.05 1083.04 1398.05 1080.04 1406.05 1076.04 1413.05 1072.04 1421.05 1068.04 1429.05 1065.03 1436.05 1061.03 1444.05 1057.03 1452.05 1053.03 1459.05 1049.03 1467.05 1045.03 1474.05 1041.03 1482.05 1037.03 1490.05 1034.03 1497.05 1030.03 1505.05 1026.03 1513.05 1022.03 1520.05 1018.03 1528.05 1014.03 1536.05 1010.03 1543.05 1007.03 1551.05 1003.03 1559.05 999.033 1566.05 995.033 1574.05 991.032 1582.05 987.032 1589.05 983.032 1597.05 980.032 1605.05 976.032 1612.05 972.032 1620.05 968.032 1627.05 964.032 1635.05 960.031 1643.05 956.031 1650.05 953.031 1658.05 949.031 1666.05 945.031 1673.05 941.031 1681.06 937.031 1689.06 933.031 1696.06 929.031 1704.06 926.03 1712.06 922.03 1719.06 918.03 1727.06 914.03 1735.06 910.03 1742.06 906.03 1750.06 902.03 1757.06 899.03 1765.06 895.029 1773.06 891.029 1780.06 887.029 1788.06 883.029 1796.06 879.029 1803.06 875.029 1811.06 871.029 1819.06 868.028 1826.06 864.028 1834.06 860.028 1842.06 856.028 1849.06 852.028 1857.06 848.028 1865.06 844.028 1872.06 841.028 1880.06 837.027 1888.06 833.027 1895.06 829.027 1903.06 825.027 1910.06 821.027 1918.06 817.027 1926.06 814.027 1933.06 809.026 1941.06 805.026 1949.06 801.026 1956.06 797.026 1964.06 792.026 1972.06 787.026 1979.06 783.026 1987.07 778.026 1995.07 774.025 2002.07 769.025 2010.07 765.025 2018.07 760.025 2025.07 755.025 2033.07 751.025 2040.07 746.024 2048.07 742.024 2056.07 737.024 2063.07 732.024 2071.07 728.024 2079.07 723.024 2086.07 719.024 2094.07 714.023 2102.07 710.023 2109.07 705.023 2117.07 700.023 2125.07 696.023 2132.07 691.023 2140.07 687.023 2148.07 682.022 2155.07 677.022 2163.07 673.022 2170.07 668.022 2178.07 664.022 2186.07 659.022 2193.07 655.021 2201.07 650.021 2209.07 645.021 2216.07 641.021 2224.07 636.021 2232.07 632.021 2239.07 627.021 2247.07 622.02 2255.07 618.02 2262.07 613.02 2270.07 609.02 2278.07 604.02 2285.07 600.02 2293.08 595.02 2301.08 590.019 2308.08 586.019 2316.08 581.019 2323.08 577.019 2331.08 572.019 2339.08 567.019 2346.08 563.018 2354.08 558.018 2362.08 554.018 2369.08 549.018 2377.08 545.018 2385.08 540.018 2392.08 535.018 2400.08 531.017 2408.08 526.017 2415.08 522.017 2423.08 517.017 2431.08 512.017 2438.08 508.017 2446.08 503.017 2453.08 499.016 2461.08 494.016 2469.08 489.016 2476.08 485.016 2484.08 480.016 2492.08 475.016 2499.08 470.015 2507.08 465.015 2515.08 460.015 2522.08 455.015 2530.08 450.015 2538.08 445.015 2545.08 439.014 2553.08 434.014 2561.08 429.014 2568.08 423.014 2576.08 418.014 2584.08 413.014 2591.08 407.013 2599.09 402.013 2606.09 397.013 2614.09 391.013 2622.09 386.013 2629.09 381.013 2637.09 376.012 2645.09 370.012 2652.09 365.012 2660.09 360.012 2668.09 354.012 2675.09 349.011 2683.09 344.011 2691.09 338.011 2698.09 333.011 2706.09 328.011 2714.09 322.011 2721.09 317.01 2729.09 312.01 2736.09 307.01 2744.09 301.01 2752.09 296.01 2759.09 291.01 2767.09 285.009 2775.09 280.009 2782.09 275.009 2790.09 269.009 2798.09 264.009 2805.09 259.008 2813.09 253.008 2821.09 248.008 2828.09 243.008 2836.09 238.008 2844.09 232.008 2851.09 227.007 2859.09 222.007 2867.09 216.007 2874.09 211.007 2882.09 206.007 2889.09 200.007 2897.09 195.006 2905.1 190.006 2912.1 184.006 2920.1 179.006 2928.1 174.006 2935.1 169.006 2943.1 163.005 2951.1 158.005 2958.1 153.005 2966.1 147.005 2974.1 142.005 2981.1 137.005 2989.1 131.004 2997.1 126.004 3004.1 121.004 3012.1 115.004 3019.1 110.004 3027.1 105.003 3035.1 100.003 3042.1 94.0031 3050.1 92.003 3058.1 91.003 3065.1 89.0029 3073 87 3073 2063 3065.1 2063 3058.1 2063 3050.1 2063 3042.1 2063 3035.1 2063 3027.1 2063 3019.1 2063 3012.1 2063 3004.1 2063 2997.1 2063 2989.1 2063 2981.1 2063 2974.1 2063 2966.1 2063 2958.1 2063 2951.1 2063 2943.1 2063 2935.1 2063 2928.1 2063 2920.1 2063 2912.1 2063 2905.1 2063 2897.09 2063 2889.09 2063 2882.09 2063 2874.09 2063 2867.09 2063 2859.09 2063 2851.09 2063 2844.09 2063 2836.09 2063 2828.09 2063 2821.09 2063 2813.09 2063 2805.09 2063 2798.09 2063 2790.09 2063 2782.09 2063 2775.09 2063 2767.09 2063 2759.09 2063 2752.09 2063 2744.09 2063 2736.09 2063 2729.09 2063 2721.09 2063 2714.09 2063 2706.09 2063 2698.09 2063 2691.09 2063 2683.09 2063 2675.09 2063 2668.09 2063 2660.09 2063 2652.09 2063 2645.09 2063 2637.09 2063 2629.09 2063 2622.09 2063 2614.09 2063 2606.09 2063 2599.09 2063 2591.08 2063 2584.08 2063 2576.08 2063 2568.08 2063 2561.08 2063 2553.08 2063 2545.08 2063 2538.08 2063 2530.08 2063 2522.08 2063 2515.08 2063 2507.08 2063 2499.08 2063 2492.08 2063 2484.08 2063 2476.08 2063 2469.08 2063 2461.08 2063 2453.08 2063 2446.08 2063 2438.08 2063 2431.08 2063 2423.08 2063 2415.08 2063 2408.08 2063 2400.08 2063 2392.08 2063 2385.08 2063 2377.08 2063 2369.08 2063 2362.08 2063 2354.08 2063 2346.08 2063 2339.08 2063 2331.08 2063 2323.08 2063 2316.08 2063 2308.08 2063 2301.08 2063 2293.08 2063 2285.07 2063 2278.07 2063 2270.07 2063 2262.07 2063 2255.07 2063 2247.07 2063 2239.07 2063 2232.07 2063 2224.07 2063 2216.07 2063 2209.07 2063 2201.07 2063 2193.07 2063 2186.07 2063 2178.07 2063 2170.07 2063 2163.07 2063 2155.07 2063 2148.07 2063 2140.07 2063 2132.07 2063 2125.07 2063 2117.07 2063 2109.07 2063 2102.07 2063 2094.07 2063 2086.07 2063 2079.07 2063 2071.07 2063 2063.07 2063 2056.07 2063 2048.07 2063 2040.07 2063 2033.07 2063 2025.07 2063 2018.07 2063 2010.07 2063 2002.07 2063 1995.07 2063 1987.07 2063 1979.06 2063 1972.06 2063 1964.06 2063 1956.06 2063 1949.06 2063 1941.06 2063 1933.06 2063 1926.06 2063 1918.06 2063 1910.06 2063 1903.06 2063 1895.06 2063 1888.06 2063 1880.06 2063 1872.06 2063 1865.06 2063 1857.06 2063 1849.06 2063 1842.06 2063 1834.06 2063 1826.06 2063 1819.06 2063 1811.06 2063 1803.06 2063 1796.06 2063 1788.06 2063 1780.06 2063 1773.06 2063 1765.06 2063 1757.06 2063 1750.06 2063 1742.06 2063 1735.06 2063 1727.06 2063 1719.06 2063 1712.06 2063 1704.06 2063 1696.06 2063 1689.06 2063 1681.06 2063 1673.05 2063 1666.05 2063 1658.05 2063 1650.05 2063 1643.05 2063 1635.05 2063 1627.05 2063 1620.05 2063 1612.05 2063 1605.05 2063 1597.05 2063 1589.05 2063 1582.05 2063 1574.05 2063 1566.05 2063 1559.05 2063 1551.05 2063 1543.05 2063 1536.05 2063 1528.05 2063 1520.05 2063 1513.05 2063 1505.05 2063 1497.05 2063 1490.05 2063 1482.05 2063 1474.05 2063 1467.05 2063 1459.05 2063 1452.05 2063 1444.05 2063 1436.05 2063 1429.05 2063 1421.05 2063 1413.05 2063 1406.05 2063 1398.05 2063 1390.05 2063 1383.05 2063 1375.05 2063 1367.04 2063 1360.04 2063 1352.04 2063 1344.04 2063 1337.04 2063 1329.04 2063 1328.04 2063 1322.04 2063 1314.04 2063 1306.04 2063 1299.04 2063 1291.04 2063 1283.04 2063 1282.04 2063 1276.04 2063 1268.04 2063 1260.04 2063 1253.04 2063 1245.04 2063 1237.04 2063 1234.04 2063 1230.04 2063 1222.04 2063 1214.04 2063 1207.04 2063 1199.04 2063 1191.04 2063 1188.04 2063 1184.04 2063 1176.04 2063 1169.04 2063 1161.04 2063 1153.04 2063 1146.04 2063 1141.04 2063 1138.04 2063 1130.04 2063 1123.04 2063 1115.04 2063 1107.04 2063 1100.04 2063 1095.04 2063 1092.04 2063 1084.04 2063 1077.04 2063 1069.04 2063 1061.03 2063 1054.03 2063 1049.03 2063 1046.03 2063 1039.03 2063 1031.03 2063 1023.03 2063 1016.03 2063 1008.03 2063 1002.03 2063 1000.03 2063 993.033 2063 985.032 2063 977.032 2063 970.032 2063 962.032 2063 956.031 2063 954.031 2063 947.031 2063 939.031 2063 931.031 2063 924.03 2063 916.03 2063 908.03 2063 901.03 2063 893.029 2063 886.029 2063 878.029 2063 870.029 2063 863.028 2063 855.028 2063 847.028 2063 840.028 2063 832.027 2063 824.027 2063 817.027 2063 815.027 2063 809.026 2063 801.026 2063 794.026 2063 786.026 2063 778.026 2063 771.025 2063 769.025 2063 763.025 2063 756.025 2063 748.025 2063 740.024 2063 733.024 2063 725.024 2063 723.024 2063 717.024 2063 710.023 2063 702.023 2063 694.023 2063 687.023 2063 679.022 2063 676.022 2063 671.022 2063 664.022 2063 656.021 2063 648.021 2063 641.021 2063 633.021 2063 630.021 2063 625.021 2063 618.02 2063 610.02 2063 603.02 2063 595.02 2063 587.019 2063 583.019 2063 580.019 2063 572.019 2063 564.018 2063 557.018 2063 549.018 2063 541.018 2063 537.018 2063 534.018 2063 526.017 2063 518.017 2063 511.017 2063 503.017 2063 495.016 2063 491.016 2063 488.016 2063 480.016 2063 473.016 2063 465.015 2063 457.015 2063 450.015 2063 443.015 2063 442.014 2063 434.014 2063 427.014 2063 419.014 2063 411.013 2063 404.013 2063 398.013 2063 396.013 2063 388.013 2063 381.013 2063 373.012 2063 365.012 2063 358.012 2063 350.011 2063 343.011 2063 335.011 2063 327.011 2063 320.01 2063 312.01 2063 304.01 2063 297.01 2063 289.009 2063 281.009 2063 274.009 2063 266.009 2063 258.008 2063 243 2063Z" fill="#97B9E0" fill-opacity="0.701961"/></g><g clip-path="url(#clip4)"><path d="M242.5 2063.5 3073.5 2063.5" stroke="#D9D9D9" stroke-width="3.4375" stroke-linejoin="round" stroke-miterlimit="10" fill="none" fill-rule="evenodd"/></g><g clip-path="url(#clip5)"><path d="M242.5 2063.5 242.5 2076.5M519.517 2063.5 519.517 2076.5M800.526 2063.5 800.526 2076.5M1079.54 2063.5 1079.54 2076.5M1360.54 2063.5 1360.54 2076.5M1637.55 2063.5 1637.55 2076.5M1918.56 2063.5 1918.56 2076.5M2195.57 2063.5 2195.57 2076.5M2477.58 2063.5 2477.58 2076.5M2754.59 2063.5 2754.59 2076.5M3035.5 2063.5 3035.5 2076.5" stroke="#D9D9D9" stroke-width="3.4375" stroke-linejoin="round" stroke-miterlimit="10" fill="none"/></g><g clip-path="url(#clip6)"><path d="M243.5 2002.5C248.599 2001.86 254.973 2001.24 258.797 2000.57 262.621 1999.9 263.896 1999.18 266.446 1998.48 268.995 1997.78 271.545 1997.09 274.095 1996.39 276.644 1995.69 279.194 1995.05 281.743 1994.3 284.293 1993.55 286.842 1992.69 289.392 1991.89 291.377 1991.26 295.055 1992.96 297.041 1989.47 299.59 1985 302.14 1969.52 304.689 1965.05 306.675 1961.57 310.352 1963.26 312.338 1962.64 314.887 1961.83 317.437 1961.03 319.987 1960.22 322.536 1959.42 325.086 1958.62 327.635 1957.81 330.185 1957.01 332.734 1956.2 335.284 1955.4 337.269 1954.77 340.947 1956.47 342.933 1952.99 345.482 1948.51 348.031 1933.04 350.581 1928.56 352.566 1925.08 356.244 1926.78 358.23 1926.15 360.779 1925.35 363.329 1924.54 365.878 1923.74 368.428 1922.93 370.977 1922.13 373.527 1921.33 376.076 1920.52 378.626 1919.72 381.176 1918.91 383.725 1918.11 386.275 1917.31 388.824 1916.5 391.175 1915.76 395.062 1917.84 396.473 1914.09 398.002 1910.02 396.728 1896.15 398.003 1892.08 398.985 1888.94 402.353 1890.29 404.122 1889.67 406.416 1888.86 409.221 1888.06 411.77 1887.25 414.32 1886.45 416.869 1885.65 419.419 1884.84 421.968 1884.04 424.518 1883.23 427.068 1882.43 429.617 1881.62 432.167 1880.82 434.716 1880.02 437.067 1879.27 440.954 1881.36 442.365 1877.6 443.894 1873.53 442.62 1859.66 443.895 1855.59 444.877 1852.45 448.244 1853.8 450.013 1853.18 452.308 1852.38 455.112 1851.57 457.662 1850.77 460.211 1849.96 462.761 1849.16 465.311 1848.36 467.86 1847.55 470.41 1846.75 472.959 1845.94 475.509 1845.14 478.058 1844.33 480.608 1843.53 482.908 1842.81 486.646 1844.79 488.257 1841.12 490.041 1837.05 490.041 1823.18 491.316 1819.11 492.091 1816.63 494.666 1817.18 495.905 1816.69 497.945 1815.89 501.004 1815.09 503.554 1814.28 506.103 1813.48 508.653 1812.67 511.203 1811.87 513.752 1811.07 516.302 1810.26 518.851 1809.46 521.401 1808.65 523.95 1807.85 526.5 1807.04 528.799 1806.32 532.538 1808.3 534.148 1804.63 535.933 1800.56 535.933 1786.69 537.208 1782.62 537.983 1780.15 540.557 1780.7 541.797 1780.21 543.836 1779.4 546.896 1778.6 549.446 1777.8 551.995 1776.99 554.545 1776.19 557.094 1775.38 559.644 1774.58 562.193 1773.78 564.743 1772.97 567.292 1772.17 569.842 1771.36 572.392 1770.56 574.691 1769.83 578.43 1771.82 580.04 1768.15 581.825 1764.08 581.825 1750.21 583.1 1746.14 583.874 1743.66 586.45 1744.21 587.689 1743.72 589.729 1742.92 592.788 1742.11 595.338 1741.31 597.887 1740.51 600.437 1739.7 602.987 1738.9 605.536 1738.09 608.086 1737.29 610.635 1736.49 613.185 1735.68 615.734 1734.88 618.284 1734.07 620.529 1733.37 624.136 1735.25 625.933 1731.66 627.972 1727.59 629.247 1713.72 630.522 1709.65 631.104 1707.79 632.766 1707.6 633.581 1707.24 635.366 1706.43 638.68 1705.63 641.23 1704.83 643.779 1704.02 646.329 1703.22 648.878 1702.41 651.428 1701.61 653.977 1700.8 656.527 1700 659.076 1699.2 661.626 1698.39 664.176 1697.59 666.421 1696.88 670.028 1698.76 671.824 1695.18 673.864 1691.11 675.138 1677.23 676.413 1673.16 676.996 1671.31 678.658 1671.12 679.473 1670.75 681.258 1669.95 684.572 1669.14 687.122 1668.34 689.671 1667.54 692.221 1666.73 694.77 1665.93 697.32 1665.12 699.869 1664.32 702.419 1663.51 704.968 1662.71 707.518 1661.91 710.068 1661.1 712.255 1660.41 715.747 1662.18 717.716 1658.69 720.011 1654.62 722.56 1640.75 723.835 1636.68 724.262 1635.32 724.852 1634.54 725.365 1634.27 726.894 1633.46 730.464 1632.66 733.013 1631.85 735.563 1631.05 738.112 1630.25 740.662 1629.44 743.211 1628.64 745.761 1627.83 748.311 1627.03 750.86 1626.22 753.41 1625.42 755.959 1624.62 758.147 1623.93 761.639 1625.7 763.608 1622.2 765.903 1618.13 768.452 1604.26 769.727 1600.19 770.154 1598.83 770.744 1598.05 771.257 1597.78 772.786 1596.98 776.356 1596.17 778.905 1595.37 781.455 1594.56 784.004 1593.76 786.554 1592.96 789.103 1592.15 791.653 1591.35 794.203 1590.54 796.752 1589.74 799.302 1588.94 801.851 1588.13 804.039 1587.44 807.531 1589.21 809.5 1585.72 811.794 1581.65 814.344 1567.83 815.619 1563.71 816.081 1562.21 816.593 1561.31 817.148 1560.97 818.678 1560.05 822.247 1559.1 824.797 1558.16 827.346 1557.22 829.896 1556.28 832.446 1555.34 834.995 1554.41 837.545 1553.52 840.094 1552.53 842.644 1551.54 845.193 1550.44 847.743 1549.39 849.709 1548.59 853.426 1549.89 855.392 1546.26 857.941 1541.54 860.491 1525.82 863.04 1521.11 865.006 1517.48 868.723 1518.78 870.689 1517.98 873.238 1516.93 875.788 1515.88 878.338 1514.84 880.887 1513.79 883.437 1512.75 885.986 1511.7 888.536 1510.66 891.086 1509.61 893.635 1508.57 895.601 1507.76 899.318 1509.07 901.284 1505.43 903.833 1500.72 906.383 1485 908.933 1480.28 910.898 1476.65 914.615 1477.95 916.581 1477.15 919.131 1476.1 921.68 1475.06 924.23 1474.01 926.779 1472.97 929.329 1471.92 931.878 1470.88 934.428 1469.83 936.977 1468.79 939.527 1467.74 942.076 1466.69 944.626 1465.65 947.176 1464.6 949.537 1463.64 953.407 1465.35 954.824 1461.47 956.354 1457.28 955.079 1443.65 956.354 1439.46 957.354 1436.17 960.673 1437.14 962.473 1436.32 964.768 1435.27 967.572 1434.23 970.122 1433.18 972.671 1432.14 975.221 1431.09 977.77 1430.05 980.32 1429 982.869 1427.96 985.419 1426.91 987.968 1425.87 990.518 1424.82 993.068 1423.78 995.429 1422.81 999.299 1424.52 1000.72 1420.64 1002.25 1416.45 1000.97 1402.82 1002.25 1398.63 1003.25 1395.34 1006.56 1396.31 1008.36 1395.49 1010.66 1394.45 1013.46 1393.4 1016.01 1392.36 1018.56 1391.31 1021.11 1390.27 1023.66 1389.22 1026.21 1388.18 1028.76 1387.13 1031.31 1386.08 1033.86 1385.04 1036.41 1383.99 1038.96 1382.95 1041.27 1382 1044.99 1383.62 1046.61 1379.81 1048.39 1375.62 1048.39 1361.99 1049.67 1357.8 1050.48 1355.14 1052.96 1355.33 1054.26 1354.67 1056.3 1353.62 1059.36 1352.57 1061.91 1351.53 1064.45 1350.48 1067 1349.44 1069.55 1348.39 1072.1 1347.35 1074.65 1346.3 1077.2 1345.26 1079.75 1344.21 1082.3 1343.17 1084.85 1342.12 1087.16 1341.17 1090.88 1342.79 1092.5 1338.99 1094.28 1334.79 1094.28 1321.17 1095.56 1316.97 1096.37 1314.32 1098.85 1314.5 1100.15 1313.84 1102.19 1312.79 1105.25 1311.75 1107.8 1310.7 1110.35 1309.66 1112.9 1308.61 1115.45 1307.57 1118 1306.52 1120.54 1305.48 1123.09 1304.43 1125.64 1303.38 1128.19 1302.34 1130.74 1301.29 1133.06 1300.35 1136.77 1301.96 1138.39 1298.16 1140.18 1293.97 1140.18 1280.34 1141.45 1276.15 1142.26 1273.49 1144.75 1273.67 1146.04 1273.01 1148.08 1271.96 1151.14 1270.92 1153.69 1269.87 1156.24 1268.83 1158.79 1267.78 1161.34 1266.74 1163.89 1265.69 1166.44 1264.65 1168.99 1263.6 1171.54 1262.56 1174.09 1261.51 1176.63 1260.47 1178.9 1259.54 1182.47 1261.05 1184.28 1257.33 1186.32 1253.14 1187.6 1239.51 1188.87 1235.32 1189.51 1233.22 1191.04 1232.71 1191.93 1232.18 1193.72 1231.14 1197.03 1230.09 1199.58 1229.05 1202.13 1228 1204.68 1226.96 1207.23 1225.91 1209.78 1224.87 1212.33 1223.82 1214.88 1222.78 1217.43 1221.73 1219.98 1220.68 1222.53 1219.64 1224.79 1218.71 1228.37 1220.22 1230.18 1216.5 1232.22 1212.31 1233.49 1198.68 1234.76 1194.49 1235.4 1192.4 1236.93 1191.88 1237.82 1191.36 1239.61 1190.31 1242.92 1189.27 1245.47 1188.22 1248.02 1187.17 1250.57 1186.13 1253.12 1185.08 1255.67 1184.04 1258.22 1182.99 1260.77 1181.95 1263.32 1180.9 1265.87 1179.86 1268.42 1178.81 1270.62 1177.91 1274.08 1179.3 1276.07 1175.68 1278.36 1171.49 1280.91 1157.86 1282.19 1153.66 1282.69 1152 1283.11 1150.94 1283.72 1150.53 1285.25 1149.48 1288.82 1148.44 1291.36 1147.39 1293.91 1146.35 1296.46 1145.3 1299.01 1144.26 1301.56 1143.21 1304.11 1142.17 1306.66 1141.12 1309.21 1140.08 1311.76 1139.03 1314.31 1137.99 1316.52 1137.08 1319.97 1138.47 1321.96 1134.85 1324.25 1130.66 1326.8 1117.03 1328.08 1112.84 1328.59 1111.17 1329 1110.12 1329.61 1109.7 1331.14 1108.66 1334.71 1107.61 1337.26 1106.57 1339.81 1105.52 1342.36 1104.48 1344.91 1103.43 1347.45 1102.39 1350 1101.34 1352.55 1100.29 1355.1 1099.25 1357.65 1098.2 1360.2 1097.16 1362.75 1096.11 1365.3 1095.12 1367.85 1094.02 1370.4 1092.92 1372.95 1091.73 1375.5 1090.57 1378.05 1089.4 1380.6 1088.21 1383.15 1087.03 1385.7 1085.85 1388.25 1084.67 1390.8 1083.49 1393.35 1082.31 1395.9 1081.18 1398.45 1079.95 1401 1078.72 1403.54 1077.38 1406.09 1076.09 1408.64 1074.81 1411.19 1073.52 1413.74 1072.23 1416.29 1070.95 1418.84 1069.66 1421.39 1068.37 1423.94 1067.09 1426.49 1065.8 1429.04 1064.51 1431.59 1063.23 1434.14 1061.94 1436.69 1060.65 1439.24 1059.37 1441.79 1058.08 1444.34 1056.79 1446.89 1055.51 1449.44 1054.22 1451.99 1052.93 1454.54 1051.65 1457.09 1050.36 1459.64 1049.08 1462.18 1047.79 1464.73 1046.5 1467.28 1045.22 1469.83 1043.93 1472.38 1042.64 1474.93 1041.36 1477.48 1040.07 1480.03 1038.78 1482.58 1037.5 1485.13 1036.21 1487.68 1034.92 1490.23 1033.64 1492.78 1032.35 1495.33 1031.06 1497.88 1029.78 1500.43 1028.49 1502.98 1027.2 1505.53 1025.92 1508.08 1024.63 1510.63 1023.35 1513.18 1022.06 1515.73 1020.77 1518.27 1019.49 1520.82 1018.2 1523.37 1016.91 1525.92 1015.63 1528.47 1014.34 1531.02 1013.05 1533.57 1011.77 1536.12 1010.48 1538.67 1009.19 1541.22 1007.91 1543.77 1006.62 1546.32 1005.33 1548.87 1004.05 1551.42 1002.76 1553.97 1001.47 1556.52 1000.19 1559.07 998.901 1561.62 997.615 1564.17 996.328 1566.72 995.042 1569.27 993.755 1571.82 992.469 1574.36 991.182 1576.91 989.896 1579.46 988.609 1582.01 987.323 1584.56 986.036 1587.11 984.75 1589.66 983.463 1592.21 982.177 1594.76 980.89 1597.31 979.604 1599.86 978.317 1602.41 977.031 1604.96 975.744 1607.51 974.458 1610.06 973.171 1612.61 971.885 1615.16 970.598 1617.71 969.312 1620.26 968.025 1622.81 966.739 1625.36 965.452 1627.91 964.166 1630.45 962.879 1633 961.593 1635.55 960.306 1638.1 959.02 1640.65 957.733 1643.2 956.447 1645.75 955.16 1648.3 953.873 1650.85 952.587 1653.4 951.3 1655.95 950.014 1658.5 948.727 1661.05 947.441 1663.6 946.154 1666.15 944.868 1668.7 943.581 1671.25 942.295 1673.8 941.008 1676.35 939.722 1678.9 938.435 1681.45 937.149 1684 935.862 1686.54 934.576 1689.09 933.29 1691.64 932.003 1694.19 930.716 1696.74 929.43 1699.29 928.143 1701.84 926.857 1704.39 925.57 1706.94 924.284 1709.49 922.997 1712.04 921.711 1714.59 920.424 1717.14 919.138 1719.69 917.851 1722.24 916.565 1724.79 915.278 1727.34 913.992 1729.89 912.705 1732.44 911.419 1734.99 910.132 1737.54 908.846 1740.09 907.559 1742.63 906.273 1745.18 904.987 1747.73 903.7 1750.28 902.414 1752.83 901.127 1755.38 899.841 1757.93 898.554 1760.48 897.268 1763.03 895.981 1765.58 894.695 1768.13 893.408 1770.68 892.121 1773.23 890.835 1775.78 889.548 1778.33 888.262 1780.88 886.976 1783.43 885.689 1785.98 884.402 1788.53 883.116 1791.08 881.829 1793.63 880.543 1796.18 879.257 1798.72 877.97 1801.27 876.683 1803.82 875.397 1806.37 874.11 1808.92 872.824 1811.47 871.538 1814.02 870.251 1816.57 868.964 1819.12 867.678 1821.67 866.391 1824.22 865.105 1826.77 863.819 1829.32 862.532 1831.87 861.246 1834.42 859.959 1836.97 858.673 1839.52 857.386 1842.07 856.1 1844.62 854.813 1847.17 853.527 1849.72 852.24 1852.27 850.954 1854.82 849.667 1857.36 848.381 1859.91 847.094 1862.46 845.808 1865.01 844.521 1867.56 843.235 1870.11 841.948 1872.66 840.662 1875.21 839.375 1877.76 838.089 1880.31 836.802 1882.86 835.516 1885.41 834.229 1887.96 832.943 1890.51 831.656 1893.06 830.37 1895.61 829.083 1898.16 827.797 1900.71 826.511 1903.26 825.224 1905.81 823.938 1908.36 822.651 1910.91 821.365 1913.45 820.078 1916 818.792 1918.55 817.505 1921.1 816.219 1923.65 814.986 1926.2 813.646 1928.75 812.306 1931.3 810.872 1933.85 809.465 1936.4 808.058 1938.95 806.624 1941.5 805.203 1944.05 803.783 1946.6 802.362 1949.15 800.942 1951.7 799.521 1954.25 798.154 1956.8 796.68 1959.35 795.206 1961.9 793.625 1964.45 792.097 1967 790.569 1969.54 789.042 1972.09 787.514 1974.64 785.986 1977.19 784.459 1979.74 782.931 1982.29 781.403 1984.84 779.876 1987.39 778.348 1989.94 776.82 1992.49 775.292 1995.04 773.764 1997.59 772.236 2000.14 770.709 2002.69 769.181 2005.24 767.654 2007.79 766.126 2010.34 764.598 2012.89 763.07 2015.44 761.543 2017.99 760.015 2020.54 758.487 2023.09 756.959 2025.64 755.432 2028.18 753.904 2030.73 752.376 2033.28 750.849 2035.83 749.321 2038.38 747.793 2040.93 746.266 2043.48 744.738 2046.03 743.21 2048.58 741.682 2051.13 740.155 2053.68 738.627 2056.23 737.099 2058.78 735.571 2061.33 734.044 2063.88 732.516 2066.43 730.988 2068.98 729.461 2071.53 727.933 2074.08 726.405 2076.63 724.878 2079.18 723.35 2081.72 721.822 2084.27 720.294 2086.82 718.767 2089.37 717.239 2091.92 715.711 2094.47 714.184 2097.02 712.656 2099.57 711.128 2102.12 709.6 2104.67 708.072 2107.22 706.545 2109.77 705.017 2112.32 703.489 2114.87 701.962 2117.42 700.434 2119.97 698.906 2122.52 697.379 2125.07 695.851 2127.62 694.323 2130.17 692.796 2132.72 691.268 2135.27 689.74 2137.82 688.212 2140.36 686.684 2142.91 685.156 2145.46 683.629 2148.01 682.101 2150.56 680.574 2153.11 679.046 2155.66 677.518 2158.21 675.991 2160.76 674.463 2163.31 672.935 2165.86 671.408 2168.41 669.88 2170.96 668.352 2173.51 666.824 2176.06 665.296 2178.61 663.769 2181.16 662.241 2183.71 660.713 2186.26 659.186 2188.81 657.658 2191.36 656.13 2193.91 654.603 2196.45 653.075 2199 651.547 2201.55 650.019 2204.1 648.491 2206.65 646.964 2209.2 645.436 2211.75 643.908 2214.3 642.381 2216.85 640.853 2219.4 639.325 2221.95 637.798 2224.5 636.27 2227.05 634.742 2229.6 633.214 2232.15 631.687 2234.7 630.159 2237.25 628.631 2239.8 627.104 2242.35 625.576 2244.9 624.048 2247.45 622.52 2250 620.992 2252.54 619.465 2255.09 617.937 2257.64 616.409 2260.19 614.882 2262.74 613.354 2265.29 611.826 2267.84 610.299 2270.39 608.771 2272.94 607.243 2275.49 605.716 2278.04 604.188 2280.59 602.66 2283.14 601.132 2285.69 599.604 2288.24 598.076 2290.79 596.549 2293.34 595.021 2295.89 593.494 2298.44 591.966 2300.99 590.438 2303.54 588.911 2306.09 587.383 2308.63 585.855 2311.18 584.328 2313.73 582.8 2316.28 581.272 2318.83 579.744 2321.38 578.216 2323.93 576.689 2326.48 575.161 2329.03 573.633 2331.58 572.106 2334.13 570.578 2336.68 569.05 2339.23 567.523 2341.78 565.995 2344.33 564.467 2346.88 562.94 2349.43 561.412 2351.98 559.884 2354.53 558.356 2357.08 556.828 2359.63 555.301 2362.18 553.773 2364.72 552.245 2367.27 550.718 2369.82 549.19 2372.37 547.662 2374.92 546.135 2377.47 544.607 2380.02 543.079 2382.57 541.551 2385.12 540.024 2387.67 538.496 2390.22 536.968 2392.77 535.44 2395.32 533.912 2397.87 532.385 2400.42 530.857 2402.97 529.33 2405.52 527.802 2408.07 526.274 2410.62 524.746 2413.17 523.219 2415.72 521.691 2418.27 520.163 2420.81 518.636 2423.36 517.108 2425.91 515.58 2428.46 514.052 2431.01 512.525 2433.56 510.997 2436.11 509.469 2438.66 507.941 2441.21 506.414 2443.76 504.886 2446.31 503.358 2448.86 501.831 2451.41 500.303 2453.96 498.775 2456.51 497.248 2459.06 495.72 2461.61 494.192 2464.16 492.664 2466.71 491.137 2469.26 489.609 2471.81 488.081 2474.36 486.553 2476.91 485.026 2479.45 483.498 2482 482.024 2484.55 480.443 2487.1 478.861 2489.65 477.186 2492.2 475.538 2494.75 473.889 2497.3 472.214 2499.85 470.553 2502.4 468.891 2504.95 467.229 2507.5 465.567 2510.05 463.905 2512.6 462.298 2515.15 460.582 2517.7 458.867 2520.25 457.044 2522.8 455.275 2525.35 453.506 2527.9 451.738 2530.45 449.969 2533 448.2 2535.54 446.431 2538.09 444.662 2540.64 442.893 2543.19 441.124 2545.74 439.355 2548.29 437.586 2550.84 435.817 2553.39 434.048 2555.94 432.279 2558.49 430.51 2561.04 428.742 2563.59 426.973 2566.14 425.204 2568.69 423.435 2571.24 421.666 2573.79 419.897 2576.34 418.128 2578.89 416.359 2581.44 414.59 2583.99 412.821 2586.54 411.052 2589.09 409.283 2591.63 407.515 2594.18 405.746 2596.73 403.976 2599.28 402.208 2601.83 400.439 2604.38 398.67 2606.93 396.901 2609.48 395.132 2612.03 393.363 2614.58 391.594 2617.13 389.825 2619.68 388.056 2622.23 386.288 2624.78 384.518 2627.33 382.749 2629.88 380.981 2632.43 379.212 2634.98 377.442 2637.53 375.674 2640.08 373.905 2642.63 372.136 2645.18 370.367 2647.72 368.598 2650.27 366.829 2652.82 365.06 2655.37 363.291 2657.92 361.522 2660.47 359.753 2663.02 357.984 2665.57 356.216 2668.12 354.447 2670.67 352.678 2673.22 350.909 2675.77 349.14 2678.32 347.371 2680.87 345.602 2683.42 343.833 2685.97 342.064 2688.52 340.295 2691.07 338.526 2693.62 336.757 2696.17 334.989 2698.72 333.22 2701.27 331.451 2703.81 329.682 2706.36 327.913 2708.91 326.144 2711.46 324.375 2714.01 322.606 2716.56 320.837 2719.11 319.068 2721.66 317.299 2724.21 315.53 2726.76 313.761 2729.31 311.993 2731.86 310.224 2734.41 308.455 2736.96 306.686 2739.51 304.917 2742.06 303.148 2744.61 301.379 2747.16 299.61 2749.71 297.841 2752.26 296.072 2754.81 294.303 2757.36 292.534 2759.91 290.766 2762.45 288.996 2765 287.227 2767.55 285.459 2770.1 283.69 2772.65 281.921 2775.2 280.152 2777.75 278.383 2780.3 276.614 2782.85 274.845 2785.4 273.076 2787.95 271.307 2790.5 269.538 2793.05 267.769 2795.6 266 2798.15 264.232 2800.7 262.462 2803.25 260.694 2805.8 258.925 2808.35 257.156 2810.9 255.387 2813.45 253.618 2816 251.849 2818.54 250.08 2821.09 248.311 2823.64 246.542 2826.19 244.773 2828.74 243.004 2831.29 241.235 2833.84 239.467 2836.39 237.698 2838.94 235.929 2841.49 234.16 2844.04 232.391 2846.59 230.622 2849.14 228.853 2851.69 227.084 2854.24 225.315 2856.79 223.546 2859.34 221.777 2861.89 220.008 2864.44 218.239 2866.99 216.471 2869.54 214.702 2872.09 212.933 2874.63 211.164 2877.18 209.395 2879.73 207.626 2882.28 205.857 2884.83 204.088 2887.38 202.319 2889.93 200.551 2892.48 198.781 2895.03 197.012 2897.58 195.244 2900.13 193.475 2902.68 191.705 2905.23 189.937 2907.78 188.168 2910.33 186.399 2912.88 184.63 2915.43 182.861 2917.98 181.092 2920.53 179.323 2923.08 177.554 2925.63 175.785 2928.18 174.017 2930.72 172.247 2933.27 170.478 2935.82 168.71 2938.37 166.941 2940.92 165.172 2943.47 163.403 2946.02 161.634 2948.57 159.865 2951.12 158.096 2953.67 156.327 2956.22 154.558 2958.77 152.789 2961.32 151.02 2963.87 149.251 2966.42 147.482 2968.97 145.713 2971.52 143.945 2974.07 142.176 2976.62 140.407 2979.17 138.638 2981.72 136.869 2984.27 135.1 2986.81 133.331 2989.36 131.562 2991.91 129.793 2994.46 128.024 2997.01 126.255 2999.56 124.486 3002.11 122.718 3004.66 120.949 3007.21 119.18 3009.76 117.411 3012.31 115.642 3014.86 113.873 3017.41 112.104 3019.96 110.335 3022.51 108.566 3025.06 106.797 3027.61 105.029 3030.16 103.26 3032.71 101.49 3035.26 99.7217 3037.81 97.9526 3040.36 95.6477 3042.91 94.4148 3045.45 93.1819 3048 92.9405 3050.55 92.3243 3053.1 91.7076 3055.65 91.2519 3058.2 90.7161 3060.75 90.1799 3063.3 89.6441 3065.85 89.1083 3068.4 88.5722 3070.95 88.036 3073.5 87.5002" stroke="#5089BC" stroke-width="6.875" stroke-linecap="round" stroke-linejoin="round" stroke-miterlimit="10" fill="none"/></g><g clip-path="url(#clip7)"><text fill="#595959" font-family="Calibri,Calibri_MSFontService,sans-serif" font-weight="400" font-size="41" transform="matrix(1 0 0 1 147.881 2075)">1M</text></g><g clip-path="url(#clip8)"><text fill="#595959" font-family="Calibri,Calibri_MSFontService,sans-serif" font-weight="400" font-size="41" transform="matrix(1 0 0 1 147.881 1739)">6M</text></g><g clip-path="url(#clip9)"><text fill="#595959" font-family="Calibri,Calibri_MSFontService,sans-serif" font-weight="400" font-size="41" transform="matrix(1 0 0 1 126.981 1404)">11M</text></g><g clip-path="url(#clip10)"><text fill="#595959" font-family="Calibri,Calibri_MSFontService,sans-serif" font-weight="400" font-size="41" transform="matrix(1 0 0 1 126.981 1068)">16M</text></g><g clip-path="url(#clip11)"><text fill="#595959" font-family="Calibri,Calibri_MSFontService,sans-serif" font-weight="400" font-size="41" transform="matrix(1 0 0 1 126.981 733)">21M</text></g><g clip-path="url(#clip12)"><text fill="#595959" font-family="Calibri,Calibri_MSFontService,sans-serif" font-weight="400" font-size="41" transform="matrix(1 0 0 1 126.981 397)">26M</text></g><g clip-path="url(#clip13)"><text fill="#595959" font-family="Calibri,Calibri_MSFontService,sans-serif" font-weight="400" font-size="41" transform="matrix(1 0 0 1 126.981 62)">31M</text></g><g clip-path="url(#clip14)"><text fill="#595959" font-family="Calibri,Calibri_MSFontService,sans-serif" font-weight="400" font-size="41" transform="matrix(1 0 0 1 155.151 2129)">21-Nov-22</text></g><g clip-path="url(#clip15)"><text fill="#595959" font-family="Calibri,Calibri_MSFontService,sans-serif" font-weight="400" font-size="41" transform="matrix(1 0 0 1 428.69 2129)">21-May-23</text></g><g clip-path="url(#clip16)"><text fill="#595959" font-family="Calibri,Calibri_MSFontService,sans-serif" font-weight="400" font-size="41" transform="matrix(1 0 0 1 713.51 2129)">21-Nov-23</text></g><g clip-path="url(#clip17)"><text fill="#595959" font-family="Calibri,Calibri_MSFontService,sans-serif" font-weight="400" font-size="41" transform="matrix(1 0 0 1 988.579 2129)">21-May-24</text></g><g clip-path="url(#clip18)"><text fill="#595959" font-family="Calibri,Calibri_MSFontService,sans-serif" font-weight="400" font-size="41" transform="matrix(1 0 0 1 1273.4 2129)">21-Nov-24</text></g><g clip-path="url(#clip19)"><text fill="#595959" font-family="Calibri,Calibri_MSFontService,sans-serif" font-weight="400" font-size="41" transform="matrix(1 0 0 1 1546.94 2129)">21-May-25</text></g><g clip-path="url(#clip20)"><text fill="#595959" font-family="Calibri,Calibri_MSFontService,sans-serif" font-weight="400" font-size="41" transform="matrix(1 0 0 1 1831.76 2129)">21-Nov-25</text></g><g clip-path="url(#clip21)"><text fill="#595959" font-family="Calibri,Calibri_MSFontService,sans-serif" font-weight="400" font-size="41" transform="matrix(1 0 0 1 2105.3 2129)">21-May-26</text></g><g clip-path="url(#clip22)"><text fill="#595959" font-family="Calibri,Calibri_MSFontService,sans-serif" font-weight="400" font-size="41" transform="matrix(1 0 0 1 2390.12 2129)">21-Nov-26</text></g><g clip-path="url(#clip23)"><text fill="#595959" font-family="Calibri,Calibri_MSFontService,sans-serif" font-weight="400" font-size="41" transform="matrix(1 0 0 1 2663.66 2129)">21-May-27</text></g><g clip-path="url(#clip24)"><text fill="#595959" font-family="Calibri,Calibri_MSFontService,sans-serif" font-weight="400" font-size="41" transform="matrix(1 0 0 1 2948.48 2129)">21-Nov-27</text></g><g clip-path="url(#clip25)"><text fill="#595959" font-family="Calibri,Calibri_MSFontService,sans-serif" font-weight="700" font-size="46" transform="matrix(6.12323e-17 -1 1 6.12323e-17 101.292 1121)"># INDY</text></g><g clip-path="url(#clip26)"><text fill="#595959" font-family="Calibri,Calibri_MSFontService,sans-serif" font-weight="700" font-size="46" transform="matrix(1 0 0 1 1612.87 2198)">Date</text></g></g></svg>